<?xml version="1.0" standalone="no"?><!DOCTYPE svg PUBLIC "-//W3C//DTD SVG 1.1//EN" "http://www.w3.org/Graphics/SVG/1.1/DTD/svg11.dtd"><svg t="1735825645711" class="icon" viewBox="0 0 1343 1024" version="1.1" xmlns="http://www.w3.org/2000/svg" p-id="3215" xmlns:xlink="http://www.w3.org/1999/xlink" width="262.3046875" height="200"><path d="M1033.695207 296.941341a215.932085 438.987738 59.057 1 0-753.021352 451.441888 215.932085 438.987738 59.057 1 0 753.021352-451.441888Z" fill="#D98BD6" opacity=".44" p-id="3216"></path><path d="M1279.35515 160.528964a338.539101 688.249382 59.057 1 0-1180.594436 707.775125 338.539101 688.249382 59.057 1 0 1180.594436-707.775125Z" fill="#FFA3FC" opacity=".44" p-id="3217"></path><path d="M1158.519876 551.142254a28.747249 28.747249 0 0 1-22.204375-46.984503c110.170956-134.27265 147.778107-260.605309 100.586624-337.952657-15.770741-25.861025-40.64861-45.984099-73.937924-59.817276a28.747249 28.747249 0 0 1 22.054889-53.096168c44.759466 18.593721 78.727216 46.507299 100.971837 82.970309 61.404123 100.644118 23.055294 248.031263-105.22643 404.364551a28.707003 28.707003 0 0 1-22.244621 10.515744zM276.663522 430.587791a28.741499 28.741499 0 0 1-19.703364-49.680995C324.211472 317.616853 401.386336 259.254189 486.345955 207.422899c107.485963-65.578224 221.428559-116.420608 329.500966-147.024929a28.741499 28.741499 0 0 1 35.491353 19.824102 28.741499 28.741499 0 0 1-19.824103 35.491354c-103.122131 29.212954-212.125949 77.893545-315.219332 140.792526-81.578943 49.761488-155.568612 105.703634-219.939451 166.268337a28.620761 28.620761 0 0 1-19.691866 7.813502zM309.142164 995.281498c-120.106005 0-208.302565-37.848628-251.940888-109.389031-46.421057-76.093968-35.399362-181.91834 31.02978-297.970983a28.747249 28.747249 0 0 1 49.893725 28.563266c-55.545434 97.039213-66.854602 182.085074-31.846202 239.470332 38.803036 63.600413 135.618021 92.146431 265.590082 78.359251 139.424157-14.810583 301.018192-74.70835 455.017203-168.660109a28.752998 28.752998 0 0 1 29.948884 49.083053c-161.111081 98.286844-331.191304 161.059336-478.894668 176.743835-23.934959 2.541257-46.909761 3.800386-68.797916 3.800386z" fill="#6E6E96" p-id="3218"></path><path d="M329.311234 746.111845a28.724251 28.724251 0 0 1-24.567399-13.781431C244.150384 632.99717 392.054979 469.218344 561.979967 365.550016a28.747249 28.747249 0 1 1 29.943134 49.083052c-186.765126 113.942595-264.549432 244.39761-238.101963 287.759961a28.747249 28.747249 0 0 1-24.509904 43.718816zM575.255446 752.620222a28.747249 28.747249 0 0 1-9.774064-55.786911c49.778736-17.990028 102.742667-43.747563 153.153842-74.495621 186.747878-113.942595 264.537933-244.391861 238.090464-287.754211-17.518573-28.718502-83.148542-32.139424-167.199748-8.721915a28.747249 28.747249 0 1 1-15.425774-55.38445c114.563536-31.909446 199.011454-19.450389 231.714324 34.163231 60.576203 99.327494-87.322643 263.10632-257.230382 366.774648-54.424291 33.185824-109.452275 59.932264-163.560347 79.480394-3.231191 1.172888-6.525625 1.724835-9.768315 1.724835z" fill="#6E6E96" p-id="3219"></path><path d="M994.384584 54.619773m-54.619772 0a54.619773 54.619773 0 1 0 109.239545 0 54.619773 54.619773 0 1 0-109.239545 0Z" fill="#6E6E96" p-id="3220"></path><path d="M451.061582 764.676818m-54.619773 0a54.619773 54.619773 0 1 0 109.239546 0 54.619773 54.619773 0 1 0-109.239546 0Z" fill="#6E6E96" p-id="3221"></path><path d="M1021.59673 679.768944m-99.045771 0a99.045771 99.045771 0 1 0 198.091542 0 99.045771 99.045771 0 1 0-198.091542 0Z" fill="#6E6E96" p-id="3222"></path><path d="M182.522032 487.018641m-44.805462 0a44.805462 44.805462 0 1 0 89.610924 0 44.805462 44.805462 0 1 0-89.610924 0Z" fill="#6E6E96" p-id="3223"></path></svg>